<mxfile host="Electron" agent="Mozilla/5.0 (Windows NT 10.0; Win64; x64) AppleWebKit/537.36 (KHTML, like Gecko) draw.io/24.7.17 Chrome/128.0.6613.36 Electron/32.0.1 Safari/537.36" version="24.7.17">
  <diagram name="Страница — 1" id="rZahJj9WsNmB0-EK4zL3">
    <mxGraphModel dx="1050" dy="629" grid="1" gridSize="10" guides="1" tooltips="1" connect="1" arrows="1" fold="1" page="1" pageScale="1" pageWidth="1169" pageHeight="827" math="1" shadow="0">
      <root>
        <mxCell id="0" />
        <mxCell id="1" parent="0" />
        <mxCell id="zdKoEI4ed4DlMrd8KV_M-1" value="" style="rounded=0;whiteSpace=wrap;html=1;fillColor=#fff2cc;strokeColor=#d6b656;" vertex="1" parent="1">
          <mxGeometry x="310" y="230" width="70" height="160" as="geometry" />
        </mxCell>
        <mxCell id="zdKoEI4ed4DlMrd8KV_M-2" value="" style="rounded=0;whiteSpace=wrap;html=1;fillColor=#fff2cc;strokeColor=#d6b656;" vertex="1" parent="1">
          <mxGeometry x="380" y="230" width="70" height="160" as="geometry" />
        </mxCell>
        <mxCell id="zdKoEI4ed4DlMrd8KV_M-3" value="" style="rounded=0;whiteSpace=wrap;html=1;fillColor=#fff2cc;strokeColor=#d6b656;" vertex="1" parent="1">
          <mxGeometry x="450" y="230" width="70" height="160" as="geometry" />
        </mxCell>
        <mxCell id="zdKoEI4ed4DlMrd8KV_M-4" value="" style="rounded=0;whiteSpace=wrap;html=1;fillColor=#dae8fc;strokeColor=#6c8ebf;" vertex="1" parent="1">
          <mxGeometry x="520" y="230" width="70" height="160" as="geometry" />
        </mxCell>
        <mxCell id="zdKoEI4ed4DlMrd8KV_M-5" value="" style="rounded=0;whiteSpace=wrap;html=1;fillColor=#dae8fc;strokeColor=#6c8ebf;" vertex="1" parent="1">
          <mxGeometry x="590" y="230" width="70" height="160" as="geometry" />
        </mxCell>
        <mxCell id="zdKoEI4ed4DlMrd8KV_M-6" value="&lt;font style=&quot;font-size: 17px;&quot;&gt;60%&lt;/font&gt;" style="text;html=1;align=center;verticalAlign=middle;resizable=0;points=[];autosize=1;strokeColor=none;fillColor=none;" vertex="1" parent="1">
          <mxGeometry x="385" y="188" width="60" height="30" as="geometry" />
        </mxCell>
        <mxCell id="zdKoEI4ed4DlMrd8KV_M-7" value="&lt;font style=&quot;font-size: 17px;&quot;&gt;20%&lt;/font&gt;" style="text;html=1;align=center;verticalAlign=middle;resizable=0;points=[];autosize=1;strokeColor=none;fillColor=none;" vertex="1" parent="1">
          <mxGeometry x="560" y="188" width="60" height="30" as="geometry" />
        </mxCell>
        <mxCell id="zdKoEI4ed4DlMrd8KV_M-8" value="&lt;font style=&quot;font-size: 17px;&quot;&gt;$$\Pi_1$$&lt;/font&gt;" style="text;html=1;align=center;verticalAlign=middle;resizable=0;points=[];autosize=1;strokeColor=none;fillColor=none;" vertex="1" parent="1">
          <mxGeometry x="365" y="295" width="100" height="30" as="geometry" />
        </mxCell>
        <mxCell id="zdKoEI4ed4DlMrd8KV_M-9" value="&lt;span style=&quot;font-size: 17px;&quot;&gt;$$\Pi_2$$&lt;/span&gt;" style="text;html=1;align=center;verticalAlign=middle;resizable=0;points=[];autosize=1;strokeColor=none;fillColor=none;" vertex="1" parent="1">
          <mxGeometry x="520" y="295" width="100" height="30" as="geometry" />
        </mxCell>
      </root>
    </mxGraphModel>
  </diagram>
</mxfile>
